<svg width="217" height="292" viewBox="0 0 217 292" fill="none" xmlns="http://www.w3.org/2000/svg">
<g clip-path="url(#clip0_596_424)">
<path d="M85.7345 105.68C85.7345 105.68 74.3623 98.6527 72.626 100.611C70.4577 103.042 80.8971 112.373 80.8971 112.373L85.7345 105.68Z" fill="#7A796E"/>
<path d="M67.0263 138.737C67.0263 138.737 53.7879 137.022 53.0027 139.533C52.0263 142.644 65.3863 146.826 65.3863 146.826L67.0263 138.737Z" fill="#7A796E"/>
<path d="M115.979 209.836C115.979 209.836 110.237 221.888 107.708 221.197C104.566 220.327 108.302 206.826 108.302 206.826L115.979 209.836Z" fill="#7A796E"/>
<path d="M82.3602 192.181C82.3602 192.181 72.1621 200.795 70.1391 199.11C67.6356 197.025 76.5988 186.271 76.5988 186.271L82.3602 192.181Z" fill="#7A796E"/>
<path d="M86.2527 102.324C67.9339 113.577 81.2616 129.605 81.2616 129.605C81.2616 129.605 60.8907 130.3 62.0279 145.508C62.9431 157.732 73.3177 163.775 76.3248 164.597C74.3509 166.65 68.5447 179.173 75.8132 189.56C84.7234 202.292 99.016 191.734 99.016 191.734C99.016 191.734 96.3524 212.419 117.841 212.096C135.091 211.845 130.53 187.579 137.459 184.582C144.387 181.585 241.052 164.674 241.052 164.674L215.687 76.3469C215.687 76.3469 125.023 113.856 117.566 115.038C110.109 116.221 100.964 93.2924 86.2527 102.324Z" fill="#FCF0E3"/>
<path d="M99.1687 157.557C102.729 170.627 115.967 179.95 120.96 171.201C125.954 162.452 115.922 160.828 113.839 153.182C111.871 145.961 118.051 140.214 112.242 135.146C106.433 130.077 95.1362 142.756 99.1687 157.557Z" fill="#1A1A1A"/>
<path d="M110.075 197.277C108.855 201.378 110.206 204.416 113.104 205.173C116.664 206.101 118.848 202.698 119.772 198.765C120.697 194.833 119.427 191.546 116.966 190.944C114.505 190.342 111.294 193.159 110.075 197.277Z" fill="#1A1A1A"/>
<path d="M91.9358 173.619C89.9283 172.065 85.8536 173.337 83.0663 176.583C80.279 179.829 80.2766 183.155 82.6134 185.025C85.4869 187.328 88.8798 185.114 91.3152 181.904C93.7506 178.693 93.9402 175.173 91.9358 173.619Z" fill="#1A1A1A"/>
<path d="M86.8979 112.308C85.0063 114.626 85.7131 117.878 89.1209 120.468C92.5287 123.057 96.7815 123.455 98.4121 121.505C100.043 119.556 99.1226 116.166 96.065 113.535C93.0074 110.904 89.2247 109.455 86.8979 112.308Z" fill="#1A1A1A"/>
<path d="M71.4077 146.177C70.6283 149.069 72.5887 151.752 76.7613 152.723C80.9338 153.693 84.966 152.314 85.6658 149.874C86.3655 147.433 84.136 144.705 80.2776 143.561C76.4192 142.416 72.3723 142.626 71.4077 146.177Z" fill="#1A1A1A"/>
<path d="M141.525 176.55C143.991 176.03 146.459 175.503 148.932 175.022C150.832 174.657 152.978 174.103 154.898 174.195C155.955 174.246 156.909 173.282 156.958 172.457C157.028 171.477 156.15 170.942 155.092 170.891C152.952 170.798 150.544 171.417 148.417 171.82C145.828 172.309 143.248 172.867 140.67 173.41C138.16 173.942 139.031 177.077 141.528 176.559L141.525 176.55Z" fill="#2D2B2C"/>
<path d="M150.244 167.205C152.519 166.308 154.794 165.407 157.095 164.567C158.815 163.936 161.391 162.977 162.792 162.826C165.313 162.558 165.532 159.247 162.986 159.522C160.796 159.753 158.652 160.561 156.59 161.301C154.165 162.169 151.78 163.123 149.389 164.065C148.382 164.461 147.642 165.218 147.9 166.162C148.11 166.934 149.236 167.608 150.247 167.214L150.244 167.205Z" fill="#2D2B2C"/>
<path d="M141.181 158.149C142.642 157.437 144.024 156.596 145.419 155.79C146.157 155.362 146.902 154.936 147.652 154.526C147.944 154.358 148.267 154.192 148.582 154.035C148.71 153.97 148.841 153.907 148.97 153.848C149.515 153.592 148.634 153.94 149.071 153.821C151.513 153.064 150.667 149.922 148.213 150.672C146.764 151.12 145.438 151.969 144.159 152.703C142.567 153.617 140.999 154.579 139.338 155.4C137.05 156.514 138.897 159.262 141.181 158.149V158.149Z" fill="#2D2B2C"/>
<path d="M132.771 141.391C138.115 140.127 143.227 138.112 148.514 136.652C150.988 135.977 150.13 132.828 147.656 133.502C142.369 134.963 137.257 136.978 131.913 138.241C129.415 138.831 130.28 141.968 132.771 141.391Z" fill="#2D2B2C"/>
<path d="M156.392 142.373C160.001 141.163 163.784 140.359 167.211 138.691C169.494 137.572 167.647 134.824 165.364 135.94C162.284 137.456 158.802 138.137 155.543 139.232C153.129 140.042 153.969 143.186 156.401 142.381L156.392 142.373Z" fill="#2D2B2C"/>
<path d="M157.089 125.99C159.188 124.555 161.81 123.641 164.337 123.122C166.864 122.603 165.974 119.472 163.479 119.973C160.234 120.636 157.152 121.935 154.411 123.796C154.227 123.926 154.075 124.097 153.967 124.295C153.859 124.493 153.797 124.713 153.788 124.939C153.778 125.164 153.82 125.389 153.911 125.596C154.002 125.802 154.138 125.985 154.311 126.131C155.106 126.78 156.216 126.576 157.086 125.977L157.089 125.99Z" fill="#2D2B2C"/>
<path d="M130.185 127.869C133.326 126.506 135.633 123.827 138.981 122.837C141.434 122.108 140.585 118.966 138.123 119.688C134.335 120.808 131.851 123.582 128.336 125.112C125.998 126.127 127.857 128.872 130.182 127.86L130.185 127.869Z" fill="#2D2B2C"/>
<path d="M158.029 111.075C162.336 108.748 167.093 107.253 171.529 105.148C173.83 104.061 171.975 101.305 169.683 102.4C165.247 104.494 160.49 106 156.184 108.323C153.961 109.524 155.796 112.279 158.029 111.075V111.075Z" fill="#2D2B2C"/>
<path d="M181.619 119.987C185.225 118.767 188.77 117.385 192.452 116.358C194.924 115.685 194.069 112.535 191.594 113.209C187.918 114.231 184.372 115.613 180.761 116.837C178.348 117.654 179.185 120.799 181.619 119.987Z" fill="#2D2B2C"/>
<path d="M167.117 152.49C170.411 151.812 173.699 151.136 176.95 150.261C179.425 149.587 178.572 146.456 176.092 147.112C172.844 147.996 169.553 148.663 166.259 149.341C163.748 149.859 164.623 152.993 167.117 152.49Z" fill="#2D2B2C"/>
<path d="M167.204 171.965C170.702 171.5 174.197 171.596 177.696 171.137C180.2 170.793 180.42 167.496 177.89 167.833C174.393 168.299 170.898 168.202 167.402 168.661C164.895 169.005 164.678 172.302 167.204 171.965Z" fill="#2D2B2C"/>
<path d="M181.313 161.227C185.185 159.942 189.058 158.664 192.85 157.184C193.858 156.791 194.597 156.032 194.34 155.087C194.129 154.315 193.004 153.644 191.992 154.035C188.2 155.514 184.328 156.799 180.455 158.078C178.035 158.879 178.875 162.027 181.313 161.227Z" fill="#2D2B2C"/>
<path d="M204.96 161.29C209.567 159.839 214.326 159.043 218.527 156.633C220.71 155.385 218.881 152.626 216.684 153.884C212.798 156.11 208.36 156.808 204.105 158.15C201.67 158.919 202.512 162.062 204.963 161.299L204.96 161.29Z" fill="#2D2B2C"/>
<path d="M194.034 147.406C198.07 146.266 201.772 144.391 205.272 142.261C207.403 140.959 205.58 138.198 203.425 139.513C200.221 141.465 196.879 143.221 193.178 144.266C190.713 144.962 191.562 148.09 194.036 147.416L194.034 147.406Z" fill="#2D2B2C"/>
<path d="M178.744 138.696C182.395 137.059 186.129 135.612 189.929 134.36C192.347 133.552 191.507 130.408 189.071 131.211C184.935 132.576 180.872 134.154 176.898 135.938C174.577 136.99 176.432 139.732 178.742 138.687L178.744 138.696Z" fill="#2D2B2C"/>
<path d="M194.454 124.747C197.595 122.86 202.041 121.598 205.711 121.68C208.231 121.741 208.4 118.434 205.908 118.375C201.632 118.275 196.274 119.796 192.611 121.998C190.467 123.289 192.29 126.05 194.454 124.747Z" fill="#2D2B2C"/>
<path d="M208.179 132.761C211.427 131.876 214.687 130.541 218.057 130.685C219.118 130.735 220.069 129.775 220.116 128.944C220.188 127.97 219.31 127.424 218.251 127.378C214.533 127.224 210.9 128.63 207.323 129.621C204.849 130.295 205.707 133.445 208.181 132.77L208.179 132.761Z" fill="#2D2B2C"/>
<path d="M217.228 145.806C220.021 144.788 222.565 143.313 225.324 142.247C226.333 141.857 227.074 141.094 226.817 140.149C226.606 139.374 225.48 138.713 224.466 139.098C221.715 140.155 219.153 141.638 216.37 142.657C215.352 143.025 214.624 143.809 214.881 144.754C215.096 145.544 216.21 146.171 217.228 145.806Z" fill="#2D2B2C"/>
<path d="M211.493 115.89C213.216 114.378 215.391 113.373 217.412 112.2C219.583 110.932 217.756 108.179 215.568 109.448C213.25 110.796 210.795 111.976 208.818 113.706C206.974 115.321 209.644 117.506 211.493 115.89V115.89Z" fill="#2D2B2C"/>
<path d="M196.052 106.129C196.2 105.94 195.733 106.408 196.148 106.069C196.313 105.946 196.298 105.95 196.104 106.081C196.252 105.98 196.409 105.886 196.563 105.797C197.146 105.461 197.746 105.157 198.362 104.887C199.873 104.216 201.417 103.623 202.988 103.109C204.639 102.548 206.321 102.049 208.015 101.621C209.307 101.296 209.955 101.093 211.094 101.121C213.61 101.193 213.776 97.8866 211.287 97.8137C209.943 97.7773 208.478 98.1663 207.161 98.488C205.261 98.9547 203.395 99.5412 201.541 100.178C199.675 100.805 197.843 101.53 196.053 102.35C194.819 102.926 193.513 103.627 192.721 104.648C191.268 106.519 194.591 107.992 196.032 106.114L196.052 106.129Z" fill="#2D2B2C"/>
<path d="M208.715 94.3356C210.099 93.7311 211.52 93.2131 212.968 92.7846C215.433 92.0892 214.584 88.9612 212.11 89.6354C210.324 90.1705 208.573 90.8169 206.868 91.571C206.655 91.6576 206.463 91.7884 206.304 91.9547C206.146 92.1209 206.024 92.319 205.947 92.5357C205.87 92.7525 205.84 92.9831 205.859 93.2124C205.877 93.4417 205.944 93.6646 206.054 93.8664C206.612 94.672 207.722 94.7417 208.712 94.323L208.715 94.3356Z" fill="#2D2B2C"/>
<path d="M178.121 109.88C179.137 108.277 181.173 107.232 182.689 105.977C184.585 104.408 181.913 102.223 180.013 103.793C178.22 105.296 176.019 106.491 174.806 108.398C173.593 110.305 176.879 111.842 178.121 109.88V109.88Z" fill="#2D2B2C"/>
<path d="M135.165 116.905C138.238 116.034 141.128 114.651 144.262 113.98C146.769 113.439 145.898 110.303 143.404 110.83C140.27 111.502 137.38 112.884 134.308 113.759C131.844 114.457 132.692 117.582 135.166 116.908L135.165 116.905Z" fill="#2D2B2C"/>
<g opacity="0.26">
<path opacity="0.26" d="M106.07 165.344C110.436 170.782 115.606 172.103 117.091 169.496C118.576 166.889 111.461 165.421 109.463 161.669C107.587 158.144 105.553 152.166 103.602 152.258C100.347 152.41 101.356 159.473 106.07 165.344Z" fill="#F08641"/>
<path opacity="0.26" d="M114.684 203.832C116.193 204.548 117.419 202.475 118.121 201.035C118.71 199.836 119.383 198.032 118.306 197.399C117.228 196.766 116.257 198.559 115.475 199.567C114.692 200.576 113.454 203.247 114.684 203.832Z" fill="#F08641"/>
<path opacity="0.26" d="M83.832 183.872C84.8004 185.232 86.8776 184.016 88.1927 183.103C89.2889 182.341 90.7566 181.095 90.1216 180.017C89.4866 178.938 87.7635 180.04 86.5936 180.531C85.4236 181.023 83.0398 182.761 83.832 183.872Z" fill="#F08641"/>
<path opacity="0.26" d="M73.0585 147.638C72.4441 149.189 74.5885 150.266 76.069 150.878C77.3023 151.388 79.1462 151.944 79.7066 150.827C80.267 149.71 78.4194 148.867 77.3562 148.139C76.293 147.41 73.558 146.372 73.0585 147.638Z" fill="#F08641"/>
<path opacity="0.26" d="M87.7355 114.191C86.6879 115.491 88.4119 117.169 89.6435 118.194C90.6699 119.047 92.2617 120.129 93.1312 119.229C94.0006 118.33 92.4868 116.976 91.6903 115.962C90.8937 114.947 88.5912 113.129 87.7355 114.191Z" fill="#F08641"/>
</g>
</g>
<defs>
<clipPath id="clip0_596_424">
<rect width="125.831" height="175.006" fill="white" transform="translate(77.3535 229.595) rotate(-105.24)"/>
</clipPath>
</defs>
</svg>
