<svg width="136" height="157" viewBox="0 0 136 157" fill="none" xmlns="http://www.w3.org/2000/svg">
<g clip-path="url(#clip0_596_466)">
<path d="M20.9752 115.896C20.9752 115.896 12.3364 125.201 13.8434 127.196C15.7088 129.669 26.322 121.636 26.322 121.636L20.9752 115.896Z" fill="#2D2B2C"/>
<path d="M48.3388 139.454C48.3388 139.454 44.3056 151.492 46.5017 152.689C49.22 154.171 55.5764 142.474 55.5764 142.474L48.3388 139.454Z" fill="#2D2B2C"/>
<path d="M123.593 106.879C123.593 106.879 133.778 114.462 132.66 116.696C131.273 119.451 119.38 113.493 119.38 113.493L123.593 106.879Z" fill="#2D2B2C"/>
<path d="M100.962 135.014C100.962 135.014 107.112 146.119 105.167 147.677C102.746 149.632 94.387 139.267 94.387 139.267L100.962 135.014Z" fill="#2D2B2C"/>
<path d="M17.9437 114.785C25.0604 133.953 42.4563 124.472 42.4563 124.472C42.4563 124.472 39.3567 143.612 53.7372 145.355C65.297 146.754 72.8352 138.186 74.1537 135.533C75.7028 137.753 86.3039 145.481 97.3242 140.612C110.826 134.649 103.615 119.362 103.615 119.362C103.615 119.362 122.391 125.667 126.05 105.545C128.988 89.4039 105.54 89.1864 104.022 82.1654C102.505 75.1445 104.525 -18.1667 104.525 -18.1667L17.5569 -10.7886C17.5569 -10.7886 35.8354 80.7418 35.5693 87.9175C35.3033 95.0933 12.2342 99.4002 17.9437 114.785Z" fill="#FDBF12"/>
<path d="M71.7808 112.936C84.6114 112.023 95.7343 101.391 88.5027 95.1165C81.2711 88.8416 76.9507 86.1489 69.4524 86.6835C62.36 87.1875 59.1001 92.1172 53.3103 96.6024C47.5205 101.088 57.2607 113.961 71.7808 112.936Z" fill="#2D2B2C"/>
<path d="M110.803 110.074C114.404 111.972 117.483 111.27 118.719 108.707C120.239 105.553 117.484 102.877 113.975 101.301C110.465 99.7243 107.186 100.293 106.171 102.481C105.156 104.668 107.203 108.18 110.803 110.074Z" fill="#2D2B2C"/>
<path d="M85.4243 122.64C83.6201 124.226 84.0423 128.266 86.5556 131.466C89.069 134.666 92.1684 135.279 94.3402 133.444C97.0128 131.186 95.5743 127.614 93.0285 124.744C90.4826 121.875 87.2418 121.056 85.4243 122.64Z" fill="#2D2B2C"/>
<path d="M27.3663 116.034C29.1808 118.227 32.3361 118.155 35.378 115.467C38.42 112.78 39.5641 108.869 38.0551 106.985C36.5461 105.101 33.2107 105.336 30.1961 107.706C27.1815 110.077 25.1348 113.332 27.3663 116.034Z" fill="#2D2B2C"/>
<path d="M56.084 136.739C58.6333 138.003 61.4953 136.661 63.1665 132.953C64.8377 129.244 64.2961 125.22 62.1518 124.116C60.0075 123.011 57.0544 124.588 55.27 127.98C53.4855 131.373 52.9464 135.184 56.084 136.739Z" fill="#2D2B2C"/>
<path d="M81.9226 43.164C72.9166 46.717 76.8256 61.1982 81.5597 66.3353C85.962 71.1293 96.4401 73.0286 103.509 70.2572C103.404 61.686 103.47 49.4479 103.611 36.7838C100.899 39.1078 98.1433 41.5802 94.9302 42.7802C90.6119 44.4075 85.8465 41.6152 81.9226 43.164Z" fill="#2D2B2C"/>
<path d="M30.1745 54.6162C39.3318 53.4682 46.596 50.8147 53.5558 43.3676C60.7728 35.6464 67.6698 28.2252 75.9712 21.6387C82.1157 16.7748 84.6682 12.6548 84.1135 4.89037C83.6627 -1.34071 82.5964 -9.31575 79.7825 -16.057L17.5554 -10.7749C17.5554 -10.7749 24.8673 25.8745 30.1745 54.6162Z" fill="#2D2B2C"/>
<g opacity="0.33">
<path opacity="0.33" d="M80.1837 108.315C86.052 105.241 88.2494 100.643 86.0798 98.7922C83.9102 96.9415 81.2437 103.297 77.3801 104.467C73.7517 105.567 67.8071 106.366 67.5322 108.202C67.0758 111.269 73.8454 111.628 80.1837 108.315Z" fill="#DEB180"/>
<path opacity="0.33" d="M117.631 107.369C118.577 106.097 116.868 104.57 115.657 103.641C114.648 102.872 113.091 101.912 112.303 102.798C111.515 103.685 113.004 104.913 113.8 105.841C114.595 106.769 116.862 108.411 117.631 107.369Z" fill="#DEB180"/>
<path opacity="0.33" d="M93.3587 132.482C94.8016 131.831 94.0591 129.665 93.4428 128.271C92.9344 127.108 92.0425 125.51 90.9178 125.906C89.793 126.303 90.5045 128.093 90.7485 129.295C90.9926 130.497 92.1759 133.018 93.3587 132.482Z" fill="#DEB180"/>
<path opacity="0.33" d="M57.6113 135.855C58.9419 136.703 60.3576 134.927 61.1977 133.643C61.8975 132.592 62.7561 130.97 61.8167 130.239C60.8772 129.508 59.7549 131.079 58.8787 131.935C58.0025 132.791 56.5212 135.156 57.6113 135.855Z" fill="#DEB180"/>
<path opacity="0.33" d="M29.1417 115.991C30.1581 117.198 32.0441 115.908 33.2238 114.947C34.2101 114.145 35.511 112.858 34.8316 111.882C34.1523 110.907 32.6134 112.071 31.5239 112.624C30.4344 113.177 28.3115 114.978 29.1417 115.991Z" fill="#DEB180"/>
</g>
</g>
<defs>
<clipPath id="clip0_596_466">
<rect width="119.525" height="166.567" fill="white" transform="translate(135.595 144.841) rotate(174.309)"/>
</clipPath>
</defs>
</svg>
