<svg width="196" height="152" viewBox="0 0 196 152" fill="none" xmlns="http://www.w3.org/2000/svg">
<g clip-path="url(#clip0_596_407)">
<path d="M65.1888 51.0814C61.4963 58.6128 55.4922 73.6574 60.1917 78.5875C64.8468 83.4589 69.5518 81.1271 69.5518 81.1271C69.5518 81.1271 64.2473 93.7505 70.5715 99.6272C78.3868 106.893 85.6029 100.552 85.6029 100.552C85.6029 100.552 83.8933 110.008 94.1434 112.969C102.44 115.366 110.543 104.328 110.543 104.328C110.543 104.328 110.96 109.57 117.541 111.044C124.186 112.535 133.986 99.6538 138.54 92.6127C143.567 84.8399 199.967 -11.8581 199.967 -11.8581L121.17 -56.4546C121.17 -56.4546 69.2649 42.7716 65.1888 51.0814Z" fill="#DEB180"/>
<path d="M97.7117 76.1775C109.335 82.7537 125.059 79.9413 122.404 70.3621C119.75 60.7829 111.642 66.6946 104.851 62.8493C98.437 59.2001 98.6937 50.8845 91.1167 51.4414C83.5397 51.9983 84.5439 68.7224 97.7117 76.1775Z" fill="#2D2B2C"/>
<path d="M118.866 104.993C122.17 106.502 124.874 103.547 126.436 99.8898C127.999 96.2329 127.32 92.8163 125.023 91.8207C122.726 90.8251 119.145 93.0369 117.254 96.8103C115.363 100.584 116.181 103.768 118.866 104.993Z" fill="#2D2B2C"/>
<path d="M101.116 93.9304C98.8164 92.9332 95.2382 95.1466 93.3452 98.9228C91.4522 102.699 92.2658 105.885 94.9572 107.105C98.2617 108.615 100.966 105.659 102.529 102C104.093 98.3398 103.413 94.926 101.116 93.9304Z" fill="#2D2B2C"/>
<path d="M82.0782 83.1536C79.7814 82.1579 76.1988 84.3726 74.3102 88.1476C72.4217 91.9225 73.2308 95.1096 75.9222 96.3297C79.2238 97.8378 81.9305 94.884 83.4927 91.2271C85.0548 87.5702 84.3734 84.152 82.0782 83.1536Z" fill="#2D2B2C"/>
<path d="M64.735 67.0801C62.8533 70.8627 63.6556 74.0422 66.347 75.2623C69.6487 76.7704 72.3554 73.8166 73.9191 70.1569C75.4828 66.4971 74.7998 63.0818 72.503 62.0861C70.2062 61.0905 66.6112 63.2944 64.735 67.0801Z" fill="#2D2B2C"/>
<g opacity="0.2">
<path opacity="0.2" d="M107.86 76.1864C114.699 76.8994 119.218 74.1913 118.427 71.3368C117.636 68.4824 111.661 72.4549 107.645 71.2517C103.875 70.118 98.2718 67.4006 96.9852 68.8284C94.8294 71.2177 100.475 75.4155 107.86 76.1864Z" fill="white"/>
<path opacity="0.2" d="M120.178 102.615C121.566 103.502 123.016 101.637 123.892 100.306C124.619 99.2038 125.504 97.5179 124.526 96.769C123.549 96.02 122.388 97.6493 121.483 98.5381C120.577 99.4269 119.046 101.89 120.178 102.615Z" fill="white"/>
<path opacity="0.2" d="M100.189 99.552C99.2097 98.7987 98.0505 100.432 97.1432 101.324C96.2359 102.216 94.7079 104.673 95.8398 105.399C97.2267 106.288 98.6782 104.42 99.5544 103.089C100.284 101.981 101.168 100.298 100.189 99.552Z" fill="white"/>
<path opacity="0.2" d="M76.8347 94.3291C78.2216 95.2182 79.6731 93.3507 80.5493 92.0191C81.2745 90.9202 82.1641 89.2331 81.1819 88.4853C80.1998 87.7376 79.0454 89.3629 78.1381 90.2545C77.2307 91.146 75.7012 93.6064 76.8347 94.3291Z" fill="white"/>
<path opacity="0.2" d="M66.8425 72.8291C68.2294 73.7182 69.6809 71.8507 70.5571 70.5191C71.2823 69.4202 72.1719 67.7331 71.1913 66.9826C70.2108 66.232 69.0532 67.8629 68.1459 68.7545C67.2386 69.646 65.709 72.1064 66.8425 72.8291Z" fill="white"/>
</g>
<path d="M128.755 -45.0547C125.278 -47.0516 121.674 -48.8178 117.965 -50.3417C115.655 -45.9173 112.243 -39.3933 108.246 -31.7427C120.697 -24.9808 136.422 -19.3051 139.941 -18.2439C154.955 -13.7095 170.864 -12.1338 184.669 -4.31292C187.128 -2.91343 189.883 -1.23138 192.626 0.70393C195.099 -3.53146 197.077 -6.92239 198.355 -9.11066C194.905 -10.0254 191.42 -10.9896 187.938 -12.2002C173.293 -17.2873 160.146 -27.272 146.654 -34.9261L128.755 -45.0547Z" fill="#2D2B2C"/>
<path d="M96.8079 -9.8283C100.472 -4.62784 106.934 -1.8442 112.885 1.17164C132.657 11.2507 155.018 20.8686 173.002 34.2652C175.958 29.2193 178.858 24.2599 181.611 19.5507C176.821 16.688 172.939 14.0383 171.629 13.1303C153.21 0.582859 129.335 -24.3935 104.661 -24.8732C102.146 -20.0575 99.5006 -14.9907 96.8079 -9.8283Z" fill="#2D2B2C"/>
<path d="M86.0382 10.8187C82.4766 17.6577 79.0711 24.1965 76.0715 29.9698C80.1629 33.9227 84.6408 37.4547 89.4379 40.5128C101.411 48.1143 114.428 53.8236 127.45 59.2952C135.818 62.8156 144.647 65.1494 153.332 67.7826C156.319 62.7139 159.57 57.1762 162.926 51.461C144.168 42.5482 126.754 30.3244 108.241 20.9546C105.615 19.6125 95.7029 14.4504 86.0382 10.8187Z" fill="#2D2B2C"/>
</g>
<defs>
<clipPath id="clip0_596_407">
<rect width="90.5386" height="161.323" fill="white" transform="translate(120.188 128.344) rotate(-150.361)"/>
</clipPath>
</defs>
</svg>
